<?xml version="1.0" encoding="UTF-8" standalone="no"?>
<svg
   width="16"
   height="16"
   viewBox="0 0 16 16"
   version="1.1"
   xmlns="http://www.w3.org/2000/svg"
   xmlns:svg="http://www.w3.org/2000/svg">
  <rect
     width="11"
     height="1"
     x="2"
     y="7"/>
  <rect
     width="1"
     height="11"
     x="7"
     y="2"/>
  <path
     d="m 7.5000005,4.0000005 a 3.4999995,3.4999995 0 0 0 -3.5,3.5 3.4999995,3.4999995 0 0 0 3.5,3.4999995 3.4999995,3.4999995 0 0 0 3.5000005,-3.4999995 3.4999995,3.4999995 0 0 0 -3.5000005,-3.5 z m 0,1 a 2.4999995,2.4999995 0 0 1 2.5000005,2.5 A 2.4999995,2.4999995 0 0 1 7.5000005,10 a 2.4999995,2.4999995 0 0 1 -2.5,-2.4999995 2.4999995,2.4999995 0 0 1 2.5,-2.5 z" />
</svg>
