<svg width="24" height="24" viewBox="0 0 24 24" xmlns="http://www.w3.org/2000/svg">
<style>@import '../highlights.css';</style>
<path fill-rule="evenodd" clip-rule="evenodd" d="M3 3L3 3.0444V3.04442C2.99991 4.70083 2.99975 7.8528 4.06744 10.611C4.6129 12.0201 5.45584 13.38 6.76565 14.3866C7.87888 15.2422 9.27635 15.8015 11 15.9563V14H12H13V15.9563C14.7237 15.8015 16.1211 15.2422 17.2344 14.3866C18.5442 13.38 19.3871 12.0201 19.9326 10.611C21.0003 7.8528 21.0001 4.70081 21 3.0444V3H19C19 4.68935 18.9901 7.50539 18.0674 9.88901C17.6129 11.0632 16.9558 12.0783 16.0156 12.8009C15.0868 13.5147 13.8082 14 12 14C10.1918 14 8.91324 13.5147 7.98436 12.8009C7.04416 12.0783 6.3871 11.0632 5.93257 9.88901C5.00988 7.50539 5 4.68935 5 3H3Z"/>
<path fill-rule="evenodd" clip-rule="evenodd" d="M15 12H9V14H5.73244C5.38663 13.4022 4.74028 13 4 13C2.89543 13 2 13.8954 2 15C2 16.1046 2.89543 17 4 17C4.74028 17 5.38663 16.5978 5.73244 16H9V18H15V16H18.2676C18.6134 16.5978 19.2597 17 20 17C21.1046 17 22 16.1046 22 15C22 13.8954 21.1046 13 20 13C19.2597 13 18.6134 13.4022 18.2676 14H15V12ZM13 14H11V16H13V14Z" class="error"/>
</svg>
