<svg width="24" height="24" viewBox="0 0 24 24" xmlns="http://www.w3.org/2000/svg">
<style>@import '../highlights.css';</style>
<path fill-rule="evenodd" clip-rule="evenodd" d="M20.9231 4.38462L15.3488 17.763L8.40319 10.8174L4.9398 20.3417L3.06021 19.6583L7.59682 7.1826L14.6512 14.237L19.0769 3.61539L20.9231 4.38462Z"/>
<path fill-rule="evenodd" clip-rule="evenodd" d="M20 6C21.1046 6 22 5.10457 22 4C22 2.89543 21.1046 2 20 2C18.8954 2 18 2.89543 18 4C18 5.10457 18.8954 6 20 6ZM17 16C17 17.1046 16.1046 18 15 18C13.8954 18 13 17.1046 13 16C13 14.8954 13.8954 14 15 14C16.1046 14 17 14.8954 17 16ZM8 11C9.10457 11 10 10.1046 10 9C10 7.89543 9.10457 7 8 7C6.89543 7 6 7.89543 6 9C6 10.1046 6.89543 11 8 11ZM4 22C5.10457 22 6 21.1046 6 20C6 18.8954 5.10457 18 4 18C2.89543 18 2 18.8954 2 20C2 21.1046 2.89543 22 4 22Z" class="info"/>
</svg>
