<svg width="24" height="24" viewBox="0 0 24 24" xmlns="http://www.w3.org/2000/svg">
<style>@import '../highlights.css';</style>
<path fill-rule="evenodd" clip-rule="evenodd" d="M15 4H9V6H5.73244C5.38663 5.4022 4.74028 5 4 5C2.89543 5 2 5.89543 2 7C2 8.10457 2.89543 9 4 9C4.74028 9 5.38663 8.5978 5.73244 8H9V10H15V8H18.2676C18.6134 8.5978 19.2597 9 20 9C21.1046 9 22 8.10457 22 7C22 5.89543 21.1046 5 20 5C19.2597 5 18.6134 5.4022 18.2676 6H15V4ZM13 6H11V8H13V6Z" class="error"/>
<path d="M17 22C14.95 22 13.19 20.76 12.42 19H14.13C14.76 19.9 15.81 20.5 17 20.5C17.9283 20.5 18.8185 20.1313 19.4749 19.4749C20.1313 18.8185 20.5 17.9283 20.5 17C20.5 16.0717 20.1313 15.1815 19.4749 14.5251C18.8185 13.8687 17.9283 13.5 17 13.5C15.65 13.5 14.5 14.28 13.9 15.4L15.5 17H11.5V13L12.8 14.3C13.69 12.92 15.23 12 17 12C18.3261 12 19.5979 12.5268 20.5355 13.4645C21.4732 14.4021 22 15.6739 22 17C22 18.3261 21.4732 19.5979 20.5355 20.5355C19.5979 21.4732 18.3261 22 17 22Z"/>
</svg>
