<svg width="24" height="24" viewBox="0 0 24 24" xmlns="http://www.w3.org/2000/svg">
<style>@import '../highlights.css';</style>
<path fill-rule="evenodd" clip-rule="evenodd" d="M18.6468 15.3419C17.7668 16.3587 16.5597 17 15 17C13.4792 17 12.3514 16.4531 11.5116 15.6134C10.7112 14.8129 10.2126 13.7846 9.83084 12.8939C9.71659 12.6273 9.61431 12.3783 9.51868 12.1455C9.26751 11.5339 9.06215 11.0339 8.80597 10.6201C8.48581 10.1029 8.25358 10 7.99999 10C7.64865 10 7.29997 10.1617 6.92554 10.6486C6.53472 11.1569 6.18699 11.9394 5.90006 12.9585C5.32899 14.9868 5.08194 17.6406 4.99939 20.0345L3.00058 19.9655C3.0847 17.5261 3.33764 14.6799 3.97491 12.4165C4.29215 11.2898 4.72567 10.2285 5.34006 9.4295C5.97084 8.60916 6.85132 8 7.99999 8C9.24639 8 10.0142 8.77208 10.5065 9.5674C10.8575 10.1344 11.1554 10.8612 11.4264 11.5222C11.5096 11.7252 11.5903 11.922 11.6691 12.1061C12.0374 12.9654 12.4138 13.6871 12.9258 14.1991C13.3986 14.6719 14.0208 15 15 15C15.9402 15 16.6081 14.6413 17.1344 14.0331C17.6921 13.3888 18.1104 12.4351 18.4048 11.2575C18.9947 8.89786 19 6.02454 19 4H21V4.04632C21 6.02409 21.0001 9.12269 20.3451 11.7425C20.0145 13.0649 19.4954 14.3612 18.6468 15.3419Z"/>
<path fill-rule="evenodd" clip-rule="evenodd" d="M20 6C21.1046 6 22 5.10457 22 4C22 2.89543 21.1046 2 20 2C18.8954 2 18 2.89543 18 4C18 5.10457 18.8954 6 20 6ZM17 16C17 17.1046 16.1046 18 15 18C13.8954 18 13 17.1046 13 16C13 14.8954 13.8954 14 15 14C16.1046 14 17 14.8954 17 16ZM8 11C9.10457 11 10 10.1046 10 9C10 7.89543 9.10457 7 8 7C6.89543 7 6 7.89543 6 9C6 10.1046 6.89543 11 8 11ZM4 22C5.10457 22 6 21.1046 6 20C6 18.8954 5.10457 18 4 18C2.89543 18 2 18.8954 2 20C2 21.1046 2.89543 22 4 22Z" class="info"/>
</svg>
