<svg width="24" height="24" viewBox="0 0 24 24" xmlns="http://www.w3.org/2000/svg">
<style>@import '../highlights.css';</style>
<path fill-rule="evenodd" clip-rule="evenodd" d="M3 3L3 3.0444V3.04442C2.99991 4.70083 2.99975 7.8528 4.06744 10.611C4.6129 12.0201 5.45584 13.38 6.76565 14.3866C7.87888 15.2422 9.27635 15.8015 11 15.9563V14H12C10.1918 14 8.91324 13.5147 7.98436 12.8009C7.04416 12.0783 6.3871 11.0632 5.93257 9.88901C5.00988 7.50539 5 4.68935 5 3H3ZM13 14.4282V16H11.72C13.7791 17.2172 15.6033 17.4217 17.1137 16.5756C18.5852 15.7513 19.4349 14.0901 19.9547 12.4226C21.0002 9.06826 21.0001 4.70122 21 3.03533V3H19C19 4.69463 18.9923 8.78907 18.0453 11.8274C17.5651 13.3682 16.9148 14.3945 16.1363 14.8307C15.5175 15.1773 14.5576 15.2828 13 14.4282Z"/>
<path fill-rule="evenodd" clip-rule="evenodd" d="M15 12H9V14H5.73244C5.38663 13.4022 4.74028 13 4 13C2.89543 13 2 13.8954 2 15C2 16.1046 2.89543 17 4 17C4.74028 17 5.38663 16.5978 5.73244 16H9V18H15V17.1919L18.0246 19.6852C18.0084 19.7878 18 19.8929 18 20C18 21.1046 18.8954 22 20 22C21.1046 22 22 21.1046 22 20C22 18.8954 21.1046 18 20 18C19.7479 18 19.5066 18.0467 19.2844 18.1318L15 14.6V12ZM13 15.5432V14H11V16H13V15.5432Z" class="error"/>
</svg>
