<svg width="24" height="24" viewBox="0 0 24 24" xmlns="http://www.w3.org/2000/svg">
<style>@import '../highlights.css';</style>
<path d="M3 15H5V17H3V15ZM3 11H5V13H3V11ZM21 9H19V7H21V9ZM21 5H19V3H21V5ZM3 7H5V9H3V7ZM21 17H19V15H21V17ZM21 13H19V11H21V13ZM15 3H17V5H15V3ZM11 3H13V5H11V3ZM3 3H5V5H3V3ZM7 3H9V5H7V3ZM5 19H3V21H5V19ZM7 19H9V21H7V19ZM13 19H11V21H13V19ZM15 19H17V21H15V19ZM21 19H19V21H21V19Z"/>
<path fill-rule="evenodd" clip-rule="evenodd" d="M17 7H7V17H17V7ZM15 9H9V15H15V9Z" class="info"/>
</svg>
