<?xml version="1.0" encoding="UTF-8" standalone="no"?>
<svg
   version="1.1"
   width="24"
   height="24"
   viewBox="0 0 24 24"
   xmlns="http://www.w3.org/2000/svg"
   xmlns:svg="http://www.w3.org/2000/svg">
  <path
     d="M 12,17 C 9.2385763,17 7,14.761424 7,12 7,9.2385763 9.2385763,7 12,7 c 2.761424,0 5,2.2385763 5,5 0,2.761424 -2.238576,5 -5,5 M 12,4.5 C 7,4.5 2.73,7.61 1,12 c 1.73,4.39 6,7.5 11,7.5 5,0 9.27,-3.11 11,-7.5 C 21.27,7.61 17,4.5 12,4.5 Z"
     id="path2" />
  <path
     d="m 12,9.0000005 c -1.656854,0 -3,1.3431455 -3,2.9999995 0,1.656854 1.343146,3 3,3 1.656854,0 3,-1.343146 3,-3 0,-1.656854 -1.343146,-2.9999995 -3,-2.9999995"
     id="path2-3"
     style="fill:#00ff00" />
</svg>
