<svg xmlns="http://www.w3.org/2000/svg" width="24" height="24" viewBox="0 0 24 24"><path fill-rule="evenodd" d="M18,2 C20.209139,2 22,3.790861 22,6 C22,8.209139 20.209139,10 18,10 C17.2581812,10 16.5635268,9.79806504 15.968008,9.44616637 L13.9325244,11.4829588 C13.9765379,11.6478854 14,11.8212028 14,12 C14,12.4877978 13.8253673,12.9348079 13.5352104,13.2819221 L14.8055359,16.0062016 C14.8698275,16.0020882 14.9346699,16 15,16 C16.6568542,16 18,17.3431458 18,19 C18,20.6568542 16.6568542,22 15,22 C13.3431458,22 12,20.6568542 12,19 C12,18.127686 12.3723062,17.3423287 12.9666855,16.7941613 L11.6480648,13.9691358 C10.8389442,13.8254994 10.1979978,13.1953651 10.0383775,12.3918847 L7.18151531,11.0593779 C6.63456684,11.6385574 5.85949314,12 5,12 C3.34314575,12 2,10.6568542 2,9 C2,7.34314575 3.34314575,6 5,6 C6.65685425,6 8,7.34314575 8,9 C8,9.07764367 7.99705038,9.15459841 7.99125707,9.23075829 L10.6897874,10.4888855 C11.0407405,10.184328 11.4988442,10 12,10 C12.1791584,10 12.3528148,10.023557 12.5180407,10.0677426 L14.5538336,8.03199196 C14.201935,7.43647323 14,6.74181883 14,6 C14,3.790861 15.790861,2 18,2 Z M15,18 C14.4477153,18 14,18.4477153 14,19 C14,19.5522847 14.4477153,20 15,20 C15.5522847,20 16,19.5522847 16,19 C16,18.4477153 15.5522847,18 15,18 Z M5,8 C4.44771525,8 4,8.44771525 4,9 C4,9.55228475 4.44771525,10 5,10 C5.55228475,10 6,9.55228475 6,9 C6,8.44771525 5.55228475,8 5,8 Z M18,4 C16.8954305,4 16,4.8954305 16,6 C16,7.1045695 16.8954305,8 18,8 C19.1045695,8 20,7.1045695 20,6 C20,4.8954305 19.1045695,4 18,4 Z"/></svg>