<svg xmlns="http://www.w3.org/2000/svg" width="24" height="24" viewBox="0 0 24 24"><path fill-rule="evenodd" d="M18,2 C20.209139,2 22,3.790861 22,6 C22,7.36191115 21.3193665,8.56485183 20.2796992,9.28722218 C21.2965693,9.76621653 22,10.8009607 22,12 C22,13.6568542 20.6568542,15 19,15 C17.3431458,15 16,13.6568542 16,12 C16,11.1557933 16.3487001,10.3930299 16.9099267,9.8478835 C16.5763715,9.75543246 16.2602526,9.61885694 15.968008,9.44616637 L13.9325244,11.4829588 C13.9765379,11.6478854 14,11.8212028 14,12 C14,13.1045695 13.1045695,14 12,14 C10.8954305,14 10,13.1045695 10,12 C10,10.8954305 10.8954305,10 12,10 C12.1787972,10 12.3521146,10.0234621 12.5170412,10.0674756 L14.5538336,8.03199196 C14.3811431,7.73974741 14.2445675,7.4236285 14.1502492,7.0897773 C13.6069701,7.65129987 12.8442067,8 12,8 C10.3431458,8 9,6.65685425 9,5 C9,3.34314575 10.3431458,2 12,2 C13.1990393,2 14.2337835,2.70343073 14.7140686,3.72012821 C15.4351482,2.68063354 16.6380888,2 18,2 Z M19,11 C18.4477153,11 18,11.4477153 18,12 C18,12.5522847 18.4477153,13 19,13 C19.5522847,13 20,12.5522847 20,12 C20,11.4477153 19.5522847,11 19,11 Z M18,4 C16.8954305,4 16,4.8954305 16,6 C16,7.1045695 16.8954305,8 18,8 C19.1045695,8 20,7.1045695 20,6 C20,4.8954305 19.1045695,4 18,4 Z M12,4 C11.4477153,4 11,4.44771525 11,5 C11,5.55228475 11.4477153,6 12,6 C12.5522847,6 13,5.55228475 13,5 C13,4.44771525 12.5522847,4 12,4 Z"/></svg>