<svg xmlns="http://www.w3.org/2000/svg" width="24" height="24" viewBox="0 0 24 24"><path fill-rule="evenodd" d="M16,2 C18.209139,2 20,3.790861 20,6 C20,8.209139 18.209139,10 16,10 C15.5421205,10 15.1022099,9.92306603 14.6924897,9.78141955 L13.7935823,11.1140865 C13.9257294,11.3811148 14,11.681884 14,12 C14,12.3145011 13.9274078,12.6120473 13.7980649,12.8767972 L15.2869147,15.085263 C15.5154719,15.0295402 15.7542862,15 16,15 C17.6568542,15 19,16.3431458 19,18 C19,19.6568542 17.6568542,21 16,21 C14.3431458,21 13,19.6568542 13,18 C13,17.3161185 13.2288317,16.6856835 13.6141034,16.1810869 L12.139,13.994 L12,14 L11.8507377,13.9945143 L11.8507377,13.9945143 L10.3805427,16.1740959 C10.7690474,16.679855 11,17.3129566 11,18 C11,19.6568542 9.65685425,21 8,21 C6.34314575,21 5,19.6568542 5,18 C5,16.3431458 6.34314575,15 8,15 C8.24246648,15 8.47821463,15.0287646 8.70401817,15.0830674 L10.1974976,12.867655 C10.070933,12.6052049 10,12.3108861 10,12 C10,11.6854989 10.0725922,11.3879527 10.2019351,11.1232028 L8.71308527,8.91473702 C8.4845281,8.97045979 8.24571379,9 8,9 C6.34314575,9 5,7.65685425 5,6 C5,4.34314575 6.34314575,3 8,3 C9.65685425,3 11,4.34314575 11,6 C11,6.6838815 10.7711683,7.31431648 10.3858966,7.81891313 L11.86,10.005 L12,10 L12.1283968,10.0040551 L12.1283968,10.0040551 L13.0252572,8.67416994 C12.3878683,7.96560334 12,7.02809742 12,6 C12,3.790861 13.790861,2 16,2 Z M16,17 C15.4477153,17 15,17.4477153 15,18 C15,18.5522847 15.4477153,19 16,19 C16.5522847,19 17,18.5522847 17,18 C17,17.4477153 16.5522847,17 16,17 Z M8,17 C7.44771525,17 7,17.4477153 7,18 C7,18.5522847 7.44771525,19 8,19 C8.55228475,19 9,18.5522847 9,18 C9,17.4477153 8.55228475,17 8,17 Z M16,4 C14.8954305,4 14,4.8954305 14,6 C14,7.1045695 14.8954305,8 16,8 C17.1045695,8 18,7.1045695 18,6 C18,4.8954305 17.1045695,4 16,4 Z M8,5 C7.44771525,5 7,5.44771525 7,6 C7,6.55228475 7.44771525,7 8,7 C8.55228475,7 9,6.55228475 9,6 C9,5.44771525 8.55228475,5 8,5 Z"/></svg>