<svg xmlns="http://www.w3.org/2000/svg" width="24" height="24" viewBox="0 0 24 24"><path fill-rule="evenodd" d="M18,2 C20.209139,2 22,3.790861 22,6 C22,8.209139 20.209139,10 18,10 C17.7574609,10 17.5199635,9.97841364 17.2893243,9.93705733 C17.1706223,11.4824313 15.8775004,12.7 14.3,12.7 C14.1584684,12.7 14.0192259,12.6901992 13.8829141,12.6712393 C13.6088113,13.4455832 12.8691512,14 12,14 C10.8954305,14 10,13.1045695 10,12 C10,11.1308488 10.5544168,10.3911887 11.3288897,10.1153804 C11.3098008,9.98077414 11.3,9.84153162 11.3,9.7 C11.3,8.12249963 12.5175687,6.82937766 14.0642103,6.70912988 C14.0215864,6.48003651 14,6.24253914 14,6 C14,3.790861 15.790861,2 18,2 Z M14.3,8.7 C13.7477153,8.7 13.3,9.14771525 13.3,9.7 C13.3,10.2522847 13.7477153,10.7 14.3,10.7 C14.8522847,10.7 15.3,10.2522847 15.3,9.7 C15.3,9.14771525 14.8522847,8.7 14.3,8.7 Z M18,4 C16.8954305,4 16,4.8954305 16,6 C16,7.1045695 16.8954305,8 18,8 C19.1045695,8 20,7.1045695 20,6 C20,4.8954305 19.1045695,4 18,4 Z"/></svg>