<svg xmlns="http://www.w3.org/2000/svg" width="24" height="24" viewBox="0 0 24 24"><path fill-rule="evenodd" d="M18,2 C20.209139,2 22,3.790861 22,6 C22,8.209139 20.209139,10 18,10 C17.2581812,10 16.5635268,9.79806504 15.968008,9.44616637 L13.9322574,11.4819593 C13.976443,11.6471852 14,11.8208416 14,12 C14,13.1045695 13.1045695,14 12,14 C11.8208416,14 11.6471852,13.976443 11.4819593,13.9322574 L8.70748498,16.7062836 C8.89499407,17.0979951 9,17.5367348 9,18 C9,19.6568542 7.65685425,21 6,21 C4.34314575,21 3,19.6568542 3,18 C3,16.3431458 4.34314575,15 6,15 C6.46326517,15 6.90200489,15.1050059 7.29371639,15.292515 L10.0677426,12.5180407 C10.023557,12.3528148 10,12.1791584 10,12 C10,10.8954305 10.8954305,10 12,10 C12.1791584,10 12.3528148,10.023557 12.5180407,10.0677426 L14.5538336,8.03199196 C14.201935,7.43647323 14,6.74181883 14,6 C14,3.790861 15.790861,2 18,2 Z M6,17 C5.44771525,17 5,17.4477153 5,18 C5,18.5522847 5.44771525,19 6,19 C6.55228475,19 7,18.5522847 7,18 C7,17.4477153 6.55228475,17 6,17 Z M18,4 C16.8954305,4 16,4.8954305 16,6 C16,7.1045695 16.8954305,8 18,8 C19.1045695,8 20,7.1045695 20,6 C20,4.8954305 19.1045695,4 18,4 Z"/></svg>