<svg xmlns="http://www.w3.org/2000/svg" width="24" height="24" viewBox="0 0 24 24"><path fill-rule="evenodd" d="M18,2 C20.209139,2 22,3.790861 22,6 C22,8.209139 20.209139,10 18,10 C17.2581812,10 16.5635268,9.79806504 15.968008,9.44616637 L13.9325244,11.4829588 C13.9765379,11.6478854 14,11.8212028 14,12 C14,12.7398375 13.5982846,13.3858493 13.0010775,13.7318119 L13.0009007,15.1710242 C14.1656226,15.5831148 15,16.6941178 15,18 C15,19.6568542 13.6568542,21 12,21 C10.3431458,21 9,19.6568542 9,18 C9,16.6937479 9.8348501,15.5824856 11.0000889,15.1706743 L10.9999275,13.7323937 C10.6966909,13.5569638 10.4437889,13.3042028 10.2681881,13.0010775 L8.82897577,13.0009007 C8.41688515,14.1656226 7.30588222,15 6,15 C4.34314575,15 3,13.6568542 3,12 C3,10.3431458 4.34314575,9 6,9 C7.30625206,9 8.41751442,9.8348501 8.82932572,11.0000889 L10.2676063,10.9999275 C10.6134261,10.4021661 11.2597476,10 12,10 C12.1791584,10 12.3528148,10.023557 12.5180407,10.0677426 L14.5538336,8.03199196 C14.201935,7.43647323 14,6.74181883 14,6 C14,3.790861 15.790861,2 18,2 Z M12,17 C11.4477153,17 11,17.4477153 11,18 C11,18.5522847 11.4477153,19 12,19 C12.5522847,19 13,18.5522847 13,18 C13,17.4477153 12.5522847,17 12,17 Z M6,11 C5.44771525,11 5,11.4477153 5,12 C5,12.5522847 5.44771525,13 6,13 C6.55228475,13 7,12.5522847 7,12 C7,11.4477153 6.55228475,11 6,11 Z M18,4 C16.8954305,4 16,4.8954305 16,6 C16,7.1045695 16.8954305,8 18,8 C19.1045695,8 20,7.1045695 20,6 C20,4.8954305 19.1045695,4 18,4 Z"/></svg>