<svg width="24" height="24" viewBox="0 0 24 24" xmlns="http://www.w3.org/2000/svg">
<path fill-rule="evenodd" clip-rule="evenodd" d="M20 3C20.5523 3 21 3.44772 21 4V20C21 20.5523 20.5523 21 20 21H4C3.44772 21 3 20.5523 3 20V4C3 3.44772 3.44772 3 4 3H20ZM16.2426 7.75735L19 5V19H5L7.75735 16.2426C8.84314 17.3284 10.3431 18 12 18C15.3137 18 18 15.3137 18 12C18 10.3431 17.3284 8.84314 16.2426 7.75735ZM16.2426 7.75735C15.1569 6.67157 13.6569 6 12 6C8.68629 6 6 8.68629 6 12C6 13.6569 6.67157 15.1569 7.75735 16.2426L16.2426 7.75735Z"/>
</svg>
