<svg width="24" height="24" viewBox="0 0 24 24" xmlns="http://www.w3.org/2000/svg">
<path d="M18 18L16.23 16.23C16.68 15.78 17.31 15.5 18 15.5C19.38 15.5 20.5 16.62 20.5 18C20.5 19.38 19.38 20.5 18 20.5C17.18 20.5 16.46 20.11 16 19.5H14.29C14.88 20.97 16.32 22 18 22C20.21 22 22 20.21 22 18C22 15.79 20.21 14 18 14C16.89 14 15.89 14.45 15.17 15.17L14 14V18H18Z"/>
<path fill-rule="evenodd" clip-rule="evenodd" d="M3 3H21.4651L17.9433 12.0003C17.1109 12.008 16.319 12.1852 15.6004 12.4991L16.4601 10.3022L12.5 11.0355V15.5983C12.1855 16.3174 12.008 17.1101 12.0003 17.9433L3 21.4651V3ZM5 5V10.3904L10.5 9.37189V5H5ZM5 18.5349V12.4244L10.5 11.4059V16.3827L5 18.5349ZM18.5349 5L17.3182 8.10926L12.5 9.00152V5H18.5349Z"/>
</svg>
