<svg width="24" height="24" viewBox="0 0 24 24" xmlns="http://www.w3.org/2000/svg">
<style>@import '../highlights.css';</style>
<path fill-rule="evenodd" clip-rule="evenodd" d="M22 13.1429V4C22 3.46957 21.7893 2.96086 21.4142 2.58579C21.0391 2.21071 20.5304 2 20 2L4 2C3.46957 2 2.96086 2.21071 2.58579 2.58579C2.21071 2.96086 2 3.46957 2 4V20C2 21.1 2.92 22 4 22H13V20H10L10 16H13.11C13.4472 14.4899 14.533 13.2269 16 12.5452V10H20V12.1882C20.7424 12.3791 21.421 12.7081 22 13.1429ZM10 8V4L14 4V8H10ZM16 8V4H20V8H16ZM8 16L8 20H4V16H8ZM4 10L8 10V14L4 14V10ZM8 4V8H4V4H8ZM14 14H10V10H14V14Z"/>
<path fill-rule="evenodd" clip-rule="evenodd" d="M22 17.1631V19H20.5V17.1631C20.5 16.9059 20.3443 16.4839 19.9724 16.1119C19.6173 15.7568 19.1147 15.5 18.5 15.5C17.8853 15.5 17.3827 15.7568 17.0276 16.1119C16.6557 16.4839 16.5 16.9059 16.5 17.1631V19H15V17.1631C15 16.4204 15.3824 15.6358 15.967 15.0512C16.5685 14.4497 17.4408 14 18.5 14C19.5592 14 20.4315 14.4497 21.033 15.0512C21.6176 15.6358 22 16.4204 22 17.1631Z" class="error"/>
<path d="M22 20.5H20.5V22H22V20.5Z" class="error"/>
<path d="M16.5 20.5H15V22H16.5V20.5Z" class="error"/>
</svg>
