<svg width="32" height="32" viewBox="0 0 32 32" xmlns="http://www.w3.org/2000/svg">
<path fill-rule="evenodd" clip-rule="evenodd" d="M18.3631 8.46812C19.2688 6.5387 20.1899 4.71124 21.1274 2.96812C21.449 2.37009 21.7726 1.78199 22.0981 1.20311C21.4748 0.945984 20.8318 0.72709 20.1719 0.549345C18.8419 0.191089 17.4432 0 16 0C7.16344 0 0 7.16344 0 16C0 24.8366 7.16344 32 16 32C24.8366 32 32 24.8366 32 16C32 12.9687 31.157 10.1343 29.6927 7.71835C29.3393 7.1353 28.9497 6.57662 28.527 6.04544C28.0671 6.52466 27.5977 7.0063 27.1182 7.49067C25.7803 8.84219 24.3639 10.215 22.8554 11.6159C22.6925 11.775 22.4791 11.8516 22.2337 11.8625C22.2202 11.889 22.2038 11.9118 22.1843 11.9307C19.9378 14.0974 19.048 16.8167 18.681 19.7112C16.7222 20.0175 15.2149 20.7173 13.9586 21.6009C13.8252 21.6947 13.6946 21.7906 13.5667 21.8883C13.311 22.0835 13.0658 22.2859 12.8289 22.4936C11.9915 23.2279 11.2593 24.0279 10.5481 24.8052C10.5369 24.8174 10.5257 24.8297 10.5145 24.8419C10.5145 24.8419 10.5145 24.8418 10.5145 24.8419C10.447 24.9156 10.3796 24.9893 10.3123 25.0625C10.2756 25.0625 10.2259 25.0571 10.1724 25.0495C10.1841 25.0217 10.1958 24.9939 10.2074 24.9662C10.2355 24.8996 10.2634 24.8334 10.2912 24.7677C10.2913 24.7677 10.2912 24.7677 10.2912 24.7677C10.2983 24.7511 10.3053 24.7345 10.3123 24.718C10.3255 24.687 10.3386 24.6562 10.3516 24.6255C11.0996 22.8676 11.764 21.457 12.4048 20.259C12.8339 19.4568 13.2524 18.75 13.6783 18.098C13.6783 18.0979 13.6782 18.098 13.6783 18.098C13.7409 18.0021 13.8039 17.907 13.8669 17.8134C13.8976 17.7678 13.9284 17.7224 13.9592 17.6773C13.9786 17.6488 13.998 17.6204 14.0175 17.5922C14.1564 17.5297 14.3244 17.3895 14.4833 17.1978C14.5247 17.148 14.5655 17.0946 14.605 17.0382C14.791 16.7726 14.9042 16.5032 14.9233 16.3125C14.9345 16.2004 14.9131 16.1155 14.8548 16.0747C14.7973 16.0344 14.7118 16.0425 14.6121 16.0896C14.4388 16.1715 14.2223 16.3711 14.0348 16.6389C13.9276 16.792 13.8446 16.9463 13.7898 17.0861C13.7463 17.1971 13.7207 17.299 13.7149 17.3837C13.7106 17.4473 13.7174 17.5013 13.7363 17.5423C13.7094 17.5869 13.6825 17.6312 13.6556 17.6753C13.5949 17.7752 13.5345 17.8742 13.4743 17.973C13.0004 18.7499 12.5345 19.5136 11.9814 20.5908C11.5088 21.5113 10.9723 22.661 10.3123 24.2442C10.2996 24.2746 10.2869 24.3051 10.2742 24.3358C10.2524 24.3882 10.2305 24.4411 10.2085 24.4944C10.1791 24.5656 10.1494 24.6376 10.1195 24.7105C10.1195 24.7105 10.1195 24.7105 10.1195 24.7105C10.1022 24.7526 10.0849 24.7951 10.0674 24.8378C10.0481 24.8851 10.0286 24.9328 10.0091 24.9809C10.0038 24.994 9.99843 25.0071 9.99309 25.0202C9.92794 25.0091 9.87358 25 9.84984 25L9.9635 24.6586C9.99624 24.5602 10.0292 24.4609 10.0626 24.3609C10.0922 24.2719 10.1221 24.1822 10.1523 24.092C10.2048 23.935 10.2581 23.7763 10.3123 23.6162C10.3489 23.5079 10.3859 23.3989 10.4234 23.2894C10.6409 22.6539 10.8736 21.9975 11.1286 21.3323C11.5423 20.2533 12.0148 19.1512 12.5767 18.0771C12.6624 17.9132 12.7503 17.75 12.8403 17.5876C12.8403 17.5876 12.8407 17.5868 12.8408 17.5868C12.9218 17.4406 13.0046 17.2951 13.0892 17.1505C13.1048 17.1239 13.1204 17.0974 13.1361 17.0709C13.1481 17.0505 13.1601 17.0303 13.1722 17.01C13.2816 16.8264 13.394 16.6441 13.5097 16.4636C13.538 16.4193 13.5665 16.3752 13.5953 16.3312C13.7386 16.1113 13.8869 15.8941 14.0403 15.68C14.4359 15.1278 14.8215 14.6012 15.1985 14.0914C15.4875 13.7005 15.7714 13.3196 16.0508 12.9447C16.9382 11.7542 17.7803 10.6243 18.5961 9.43089C18.3751 9.0652 18.2763 8.72514 18.3631 8.46812ZM16.3687 9.12936C16.304 8.7344 16.3119 8.29074 16.4684 7.82777L16.5046 7.72065L16.5527 7.61829C17.4147 5.78177 18.2912 4.03477 19.1828 2.36291C18.1615 2.12563 17.0962 2 16 2C8.26801 2 2 8.26801 2 16C2 20.3664 3.99896 24.266 7.13167 26.8335L8.06573 24.0273L8.09823 23.9296C8.99716 21.2266 10.2023 17.6029 12.4145 14.5151C13.1244 13.5244 13.8015 12.6159 14.443 11.7552L14.4472 11.7495C14.4484 11.7479 14.4496 11.7463 14.4508 11.7447C15.1258 10.839 15.7586 9.98975 16.3687 9.12936ZM9.68351 27L7.33835 26.9996C9.72135 28.8787 12.7297 30 16 30C23.732 30 30 23.732 30 16C30 13.5299 29.3617 11.212 28.2404 9.19894C26.9749 10.4694 25.6415 11.7577 24.2295 13.0692C23.9346 13.3508 23.6085 13.5424 23.2795 13.6668C21.6939 15.3493 20.9825 17.4591 20.6651 19.9627L20.476 21.4548L18.99 21.6872C15.6882 22.2035 13.9809 24.0164 12.0235 26.1554C11.945 26.2412 11.8652 26.3284 11.7859 26.4148L11.4261 26.8068L11.2407 27.2634L9.81086 27.0182L9.68351 27Z"/>
</svg>
