<svg width="32" height="32" viewBox="0 0 32 32" xmlns="http://www.w3.org/2000/svg">
<path fill-rule="evenodd" clip-rule="evenodd" d="M32 16C32 24.8366 24.8366 32 16 32C7.16344 32 0 24.8366 0 16C0 7.16344 7.16344 0 16 0C18.1593 0 20.2187 0.427749 22.0981 1.20314C22.1415 1.22103 22.1848 1.2391 22.2279 1.25736C24.71 2.30721 26.8721 3.9656 28.5271 6.04549C30.701 8.77765 32 12.2371 32 16ZM21.1272 2.96864C19.5394 2.34341 17.8098 2 16 2C8.26801 2 2 8.26801 2 16C2 23.732 8.26801 30 16 30C23.732 30 30 23.732 30 16C30 12.7991 28.9258 9.84908 27.1182 7.49081C25.7804 8.84226 24.364 10.215 22.8555 11.6159C22.6926 11.7749 22.4792 11.8516 22.2339 11.8625C22.2203 11.8889 22.2039 11.9118 22.1844 11.9307C19.9379 14.0973 19.0481 16.8167 18.6812 19.7112C14.6301 20.3446 12.5099 22.6615 10.5482 24.8052C10.4694 24.8913 10.3909 24.9771 10.3125 25.0625C10.2757 25.0625 10.226 25.0571 10.1725 25.0495C11.6389 21.5571 12.7782 19.3919 14.0177 17.5921C14.1927 17.5134 14.4139 17.3112 14.6051 17.0381C14.9005 16.6163 15.0124 16.1849 14.8549 16.0746C14.6974 15.9644 14.3303 16.217 14.0349 16.6389C13.7787 17.0048 13.6606 17.3778 13.7365 17.5423C13.6485 17.6875 13.5615 17.8302 13.4747 17.9725L13.4742 17.9734C12.5319 19.518 11.6224 21.009 9.99323 25.0202C9.92808 25.009 9.87371 25 9.84998 25L9.96363 24.6586C10.8798 21.9042 12.0054 18.5204 14.0405 15.6799C14.7391 14.7048 15.4067 13.8091 16.0505 12.9454L16.0511 12.9445C16.9383 11.7542 17.7805 10.6241 18.5962 9.43086C18.3753 9.06517 18.2764 8.7251 18.3633 8.46808C19.2688 6.53887 20.1899 4.71158 21.1272 2.96864Z"/>
</svg>
