<svg width="32" height="32" viewBox="0 0 32 32" xmlns="http://www.w3.org/2000/svg">
<path d="M22.2337 11.8625C22.4791 11.8516 22.6925 11.775 22.8554 11.6159C24.9046 9.71293 26.7838 7.86176 28.527 6.04544C30.701 8.7776 32 12.2371 32 16C32 24.8366 24.8366 32 16 32C7.16344 32 0 24.8366 0 16C0 7.16344 7.16344 0 16 0C18.1593 0 20.2187 0.427739 22.0981 1.20311C20.8238 3.4693 19.5795 5.87675 18.3631 8.46812C18.2763 8.72514 18.3751 9.0652 18.5961 9.43089C17.7803 10.6243 16.9382 11.7541 16.0509 12.9447C15.407 13.8086 14.7392 14.7045 14.0403 15.68C12.0052 18.5204 10.8797 21.9042 9.9635 24.6586L9.84984 25C9.87358 25 9.92794 25.0091 9.99309 25.0202C11.6223 21.009 12.5318 19.518 13.474 17.9734C13.5609 17.8309 13.6483 17.6877 13.7363 17.5423C13.6605 17.3778 13.7786 17.0048 14.0348 16.6389C14.3302 16.217 14.6973 15.9644 14.8548 16.0747C15.0122 16.1849 14.9004 16.6163 14.605 17.0382C14.4138 17.3113 14.1925 17.5134 14.0175 17.5922C12.778 19.3919 11.6388 21.5571 10.1724 25.0495C10.2259 25.0571 10.2756 25.0625 10.3123 25.0625C10.3907 24.9771 10.4693 24.8913 10.5481 24.8052C12.5097 22.6615 14.6299 20.3446 18.681 19.7112C19.048 16.8167 19.9378 14.0974 22.1843 11.9307C22.2038 11.9118 22.2202 11.889 22.2337 11.8625Z"/>
</svg>
