<svg width="24" height="24" viewBox="0 0 24 24" xmlns="http://www.w3.org/2000/svg">
<path d="M 11.332031,3.7675781 C 9.3277816,3.6275819 7.3847666,4.3145377 5.9082031,5.5976562 4.3296698,6.969417 3.3963403,8.9111519 3.265625,10.962891 c -0.1395218,2.190025 0.6342057,4.306241 2.0605469,5.904296 1.5294342,1.713475 3.673352,2.700349 5.9121091,2.828125 2.396819,0.136781 4.706959,-0.707949 6.449219,-2.257812 1.818432,-1.617631 2.927206,-3.908558 3.060547,-6.386719 a 0.75,0.75 0 0 0 -0.707031,-0.789062 0.75,0.75 0 0 0 -0.789063,0.708984 c -0.112059,2.082635 -1.040982,3.993937 -2.560547,5.345703 -1.452537,1.292135 -3.37621,1.996432 -5.367187,1.882813 C 9.4701002,18.093395 7.7016555,17.274709 6.4453125,15.867188 5.2773763,14.558646 4.6504139,12.836365 4.7636719,11.058594 4.8694563,9.3981762 5.6223543,7.8323524 6.8925781,6.7285156 8.076872,5.6993764 9.6316088,5.1521284 11.228516,5.2636719 c 1.477126,0.1031776 2.874192,0.7713133 3.853515,1.9003906 0.90207,1.0399975 1.374347,2.3986476 1.263672,3.7871095 -0.102073,1.279556 -0.699362,2.477225 -1.693359,3.310547 -0.914634,0.76677 -2.101665,1.160904 -3.304688,1.052734 C 10.246941,15.21555 9.2221539,14.696294 8.5195313,13.847656 7.877891,13.072792 7.5604131,12.081995 7.6660156,11.089844 7.7619974,10.188144 8.2046394,9.3548439 8.9179688,8.7929688 9.563785,8.2842851 10.382912,8.0450916 11.1875,8.1464844 c 0.725013,0.091376 1.379658,0.4590904 1.806641,1.0214844 0.386865,0.5104066 0.547511,1.1342502 0.453125,1.7246092 -0.08644,0.54081 -0.379547,1.000638 -0.792969,1.285156 -0.375642,0.25842 -0.820236,0.347443 -1.21875,0.263672 -0.358346,-0.07536 -0.640535,-0.283204 -0.794922,-0.541015 -0.137018,-0.228781 -0.160067,-0.473229 -0.09961,-0.66211 0.05331,-0.166529 0.161721,-0.262177 0.248047,-0.296875 0.07464,-0.02998 0.113782,-0.0057 0.0918,-0.01953 A 0.75,0.75 0 0 0 11.914063,10.689453 0.75,0.75 0 0 0 11.681641,9.6542969 C 11.244256,9.3782199 10.70743,9.3572136 10.230469,9.5488281 9.6977952,9.7629302 9.2937142,10.21758 9.1132813,10.78125 c -0.2012423,0.628719 -0.1035476,1.316606 0.2402343,1.890625 0.3821722,0.638188 1.0285844,1.079688 1.7734374,1.236328 0.820285,0.172429 1.677797,-0.01316 2.376953,-0.49414 0.762977,-0.525082 1.274867,-1.353168 1.423828,-2.285157 C 15.089347,10.118067 14.81494,9.0843708 14.191406,8.2617188 13.508366,7.3607577 12.482391,6.7977719 11.375,6.6582031 10.15639,6.5046361 8.9398766,6.8672392 7.9902344,7.6152344 6.9483855,8.4358778 6.3129592,9.642923 6.1757812,10.931641 c -0.1499972,1.409246 0.2985419,2.799513 1.1875,3.873047 0.9679957,1.169159 2.3661271,1.870609 3.8496098,2.003906 1.612974,0.14503 3.191579,-0.381457 4.402343,-1.396485 1.309801,-1.098076 2.093436,-2.672955 2.226563,-4.341796 C 17.985521,9.2672375 17.370572,7.5140808 16.214844,6.1816406 14.965369,4.7411005 13.192901,3.8975603 11.332031,3.7675781 Z" />
</svg>
